<svg xmlns="http://www.w3.org/2000/svg" width="1280" height="1030" viewBox="0 0 1280 1030">
<style>text{font-family:Arial,sans-serif;fill:#18303c}.small{font-size:13px}.label{font-size:17px;font-weight:bold}.title{font-size:25px;font-weight:bold}.sub{font-size:16px}.board{fill:#d7eadf;stroke:#51836a;stroke-width:1.5}.module{fill:#e6edf8;stroke:#5c77a1;stroke-width:1.5}.wire{fill:none;stroke:#378b87;stroke-width:2;stroke-dasharray:6 4}</style>
<rect width="1280" height="1030" fill="#f8f7f3"/>
<text x="45" y="42" class="title" text-anchor="start">NotchDeck One · Rev D handle integration</text>
<text x="45" y="69" class="sub" text-anchor="start">Own-build Japanese-style controls · one PCB · magnetic or Gray contacts on either handle</text>
<text x="45" y="94" class="small" text-anchor="start">Provisional 400 × 220 mm panel. Top view, driver at the bottom. Envelopes only; no cutout dimensions.</text>
<text x="45" y="128" class="label" text-anchor="start">Separate power + rotary brake</text>
<rect x="45" y="140" width="680.0" height="374.0" rx="14" fill="#fff" stroke="#a1a8a8" stroke-width="2"/>
<rect x="232.0" y="170.6" width="246.5" height="178.5" rx="0" class="board"/>
<text x="241.0" y="212.6" class="small" text-anchor="start">MAIN PCB</text>
<text x="241.0" y="231.6" class="small" text-anchor="start">145 × 105</text>
<rect x="348.4" y="222.39999999999998" width="12" height="12" rx="2" class="module"/>
<rect x="380.7" y="222.39999999999998" width="12" height="12" rx="2" class="module"/>
<rect x="413.0" y="222.39999999999998" width="12" height="12" rx="2" class="module"/>
<rect x="445.3" y="222.39999999999998" width="12" height="12" rx="2" class="module"/>
<rect x="348.4" y="254.7" width="12" height="12" rx="2" class="module"/>
<rect x="380.7" y="254.7" width="12" height="12" rx="2" class="module"/>
<rect x="413.0" y="254.7" width="12" height="12" rx="2" class="module"/>
<rect x="445.3" y="254.7" width="12" height="12" rx="2" class="module"/>
<rect x="348.4" y="287.0" width="12" height="12" rx="2" class="module"/>
<rect x="380.7" y="287.0" width="12" height="12" rx="2" class="module"/>
<rect x="413.0" y="287.0" width="12" height="12" rx="2" class="module"/>
<rect x="445.3" y="287.0" width="12" height="12" rx="2" class="module"/>
<rect x="348.4" y="319.29999999999995" width="12" height="12" rx="2" class="module"/>
<rect x="380.7" y="319.29999999999995" width="12" height="12" rx="2" class="module"/>
<rect x="413.0" y="319.29999999999995" width="12" height="12" rx="2" class="module"/>
<rect x="445.3" y="319.29999999999995" width="12" height="12" rx="2" class="module"/>
<circle cx="240.5" cy="179.1" r="3" fill="#fff" stroke="#51836a"/>
<circle cx="470.0" cy="179.1" r="3" fill="#fff" stroke="#51836a"/>
<circle cx="470.0" cy="340.6" r="3" fill="#fff" stroke="#51836a"/>
<circle cx="240.5" cy="340.6" r="3" fill="#fff" stroke="#51836a"/>
<circle cx="373.09999999999997" cy="180.46" r="3.5" fill="#207f78"/>
<text x="373.09999999999997" y="164.6" class="small" text-anchor="middle">J10</text>
<circle cx="415.59999999999997" cy="180.46" r="3.5" fill="#207f78"/>
<text x="415.59999999999997" y="164.6" class="small" text-anchor="middle">J11</text>
<circle cx="241.85999999999999" cy="281.1" r="3.5" fill="#207f78"/>
<text x="224.0" y="273.1" class="small" text-anchor="end">J12</text>
<circle cx="468.64" cy="279.4" r="3.5" fill="#207f78"/>
<text x="486.5" y="271.4" class="small" text-anchor="start">J5</text>
<rect x="79.0" y="293.0" width="136.0" height="187.0" rx="10" class="module"/>
<path d="M147.0,334.5 L147.0,438.5" fill="none" stroke="#5c77a1" stroke-width="7"/>
<rect x="123.0" y="391.5" width="48" height="16" rx="5" class="module"/>
<text x="147.0" y="321.5" class="label" text-anchor="middle">POWER</text>
<text x="147.0" y="462.5" class="small" text-anchor="middle">Off → P5</text>
<path d="M373.09999999999997,180.46 L216.0,180.46 L147.0,341.5" class="wire"/>
<path d="M241.85999999999999,281.1 L241.85999999999999,364.4 L177.0,356.5" class="wire"/>
<circle cx="606.0" cy="386.5" r="93.5" class="module"/>
<path d="M533.6868787839994,344.75 L526.7586755537238,340.75" fill="none" stroke="#5c77a1" stroke-width="2"/>
<path d="M543.9474070726376,330.6275943690353 L538.0022484688185,325.27454951816446" fill="none" stroke="#5c77a1" stroke-width="2"/>
<path d="M556.9199314335785,318.9470809696919 L552.2176494152387,312.4749450146923" fill="none" stroke="#5c77a1" stroke-width="2"/>
<path d="M572.0374903031707,310.21895428684286 L568.7835971585642,302.910590625702" fill="none" stroke="#5c77a1" stroke-width="2"/>
<path d="M588.6393738167171,304.8246753387272 L586.976080290175,296.9994945328568" fill="none" stroke="#5c77a1" stroke-width="2"/>
<path d="M606.0,303.0 L606.0,295.0" fill="none" stroke="#5c77a1" stroke-width="2"/>
<path d="M623.3606261832829,304.8246753387272 L625.023919709825,296.9994945328568" fill="none" stroke="#5c77a1" stroke-width="2"/>
<path d="M639.9625096968293,310.21895428684286 L643.2164028414358,302.910590625702" fill="none" stroke="#5c77a1" stroke-width="2"/>
<path d="M655.0800685664215,318.9470809696919 L659.7823505847613,312.4749450146923" fill="none" stroke="#5c77a1" stroke-width="2"/>
<path d="M678.3131212160006,344.75 L685.2413244462762,340.75" fill="none" stroke="#5c77a1" stroke-width="2"/>
<path d="M606.0,386.5 L654.0,358.5" fill="none" stroke="#5c77a1" stroke-width="8"/>
<text x="606.0" y="421.5" class="label" text-anchor="middle">BRAKE</text>
<text x="606.0" y="442.5" class="small" text-anchor="middle">Release → B8 → EB</text>
<path d="M415.59999999999997,180.46 L606.0,180.46 L606.0,293.0" class="wire"/>
<path d="M468.64,279.4 L576.0,298.0" class="wire"/>
<text x="385.0" y="504.0" class="small" text-anchor="middle">DRIVER</text>
<text x="775" y="170" class="label" text-anchor="start">POWER · 6 detents</text>
<text x="775" y="199" class="sub" text-anchor="start">Off, P1–P5</text>
<text x="775" y="228" class="sub" text-anchor="start">Magnetic J10 / Gray J12</text>
<text x="775" y="257" class="sub" text-anchor="start"></text>
<text x="775" y="286" class="label" text-anchor="start">BRAKE · 10 detents</text>
<text x="775" y="315" class="sub" text-anchor="start">Release, B1–B8, emergency</text>
<text x="775" y="344" class="sub" text-anchor="start">Magnetic J11 / Gray J5</text>
<text x="775" y="373" class="sub" text-anchor="start"></text>
<text x="775" y="402" class="sub" text-anchor="start">Independent sensors; mixed types allowed.</text>
<text x="775" y="431" class="sub" text-anchor="start">Brake suppresses traction in firmware.</text>
<text x="45" y="568" class="label" text-anchor="start">Combined mascon alternative</text>
<rect x="45" y="580" width="680.0" height="374.0" rx="14" fill="#fff" stroke="#a1a8a8" stroke-width="2"/>
<rect x="232.0" y="610.6" width="246.5" height="178.5" rx="0" class="board"/>
<text x="241.0" y="652.6" class="small" text-anchor="start">MAIN PCB</text>
<text x="241.0" y="671.6" class="small" text-anchor="start">145 × 105</text>
<rect x="348.4" y="662.4" width="12" height="12" rx="2" class="module"/>
<rect x="380.7" y="662.4" width="12" height="12" rx="2" class="module"/>
<rect x="413.0" y="662.4" width="12" height="12" rx="2" class="module"/>
<rect x="445.3" y="662.4" width="12" height="12" rx="2" class="module"/>
<rect x="348.4" y="694.7" width="12" height="12" rx="2" class="module"/>
<rect x="380.7" y="694.7" width="12" height="12" rx="2" class="module"/>
<rect x="413.0" y="694.7" width="12" height="12" rx="2" class="module"/>
<rect x="445.3" y="694.7" width="12" height="12" rx="2" class="module"/>
<rect x="348.4" y="727.0" width="12" height="12" rx="2" class="module"/>
<rect x="380.7" y="727.0" width="12" height="12" rx="2" class="module"/>
<rect x="413.0" y="727.0" width="12" height="12" rx="2" class="module"/>
<rect x="445.3" y="727.0" width="12" height="12" rx="2" class="module"/>
<rect x="348.4" y="759.3" width="12" height="12" rx="2" class="module"/>
<rect x="380.7" y="759.3" width="12" height="12" rx="2" class="module"/>
<rect x="413.0" y="759.3" width="12" height="12" rx="2" class="module"/>
<rect x="445.3" y="759.3" width="12" height="12" rx="2" class="module"/>
<circle cx="240.5" cy="619.1" r="3" fill="#fff" stroke="#51836a"/>
<circle cx="470.0" cy="619.1" r="3" fill="#fff" stroke="#51836a"/>
<circle cx="470.0" cy="780.6" r="3" fill="#fff" stroke="#51836a"/>
<circle cx="240.5" cy="780.6" r="3" fill="#fff" stroke="#51836a"/>
<circle cx="373.09999999999997" cy="620.46" r="3.5" fill="#207f78"/>
<text x="373.09999999999997" y="604.6" class="small" text-anchor="middle">J10</text>
<circle cx="415.59999999999997" cy="620.46" r="3.5" fill="#207f78"/>
<text x="415.59999999999997" y="604.6" class="small" text-anchor="middle">J11</text>
<circle cx="241.85999999999999" cy="721.1" r="3.5" fill="#207f78"/>
<text x="224.0" y="713.1" class="small" text-anchor="end">J12</text>
<circle cx="468.64" cy="719.4" r="3.5" fill="#207f78"/>
<text x="486.5" y="711.4" class="small" text-anchor="start">J5</text>
<rect x="79.0" y="733.0" width="136.0" height="187.0" rx="10" class="module"/>
<path d="M147.0,774.5 L147.0,878.5" fill="none" stroke="#5c77a1" stroke-width="7"/>
<rect x="123.0" y="831.5" width="48" height="16" rx="5" class="module"/>
<text x="147.0" y="761.5" class="label" text-anchor="middle">MASCON</text>
<text x="147.0" y="902.5" class="small" text-anchor="middle">EB ← N → P5</text>
<path d="M373.09999999999997,620.46 L216.0,620.46 L147.0,781.5" class="wire"/>
<path d="M468.64,719.4 L468.64,804.4 L177.0,796.5" class="wire"/>
<text x="606.0" y="823.1" class="small" text-anchor="middle">Brake station blank</text>
<text x="606.0" y="846.9" class="small" text-anchor="middle">J11 / J12 unused</text>
<text x="385.0" y="944.0" class="small" text-anchor="middle">DRIVER</text>
<text x="775" y="610" class="label" text-anchor="start">MASCON · 15 detents</text>
<text x="775" y="639" class="sub" text-anchor="start">EB, B8–B1, N, P1–P5</text>
<text x="775" y="668" class="sub" text-anchor="start">Magnetic J10 / Gray J5</text>
<text x="775" y="697" class="sub" text-anchor="start"></text>
<text x="775" y="726" class="sub" text-anchor="start">Use one selected sensor backend per handle.</text>
<text x="775" y="755" class="sub" text-anchor="start">Remove R37 + R38 for external J10 sensor.</text>
<text x="775" y="784" class="sub" text-anchor="start">Magnetic centers must be measured.</text>
<text x="775" y="813" class="sub" text-anchor="start"></text>
<text x="775" y="842" class="sub" text-anchor="start">Chassis carries handle and stop loads.</text>
<text x="775" y="871" class="sub" text-anchor="start">PCB and sensors carry no shaft load.</text>
<text x="45" y="1000" class="small" text-anchor="start">Dashed lines show interface choices, not routed harnesses. Verify cable length, hand clearance and under-panel depth on a mock-up.</text>
</svg>
